<svg width="52" height="24" viewBox="0 0 52 24" fill="none" xmlns="http://www.w3.org/2000/svg">
<g clip-path="url(#clip0_44_11463)">
<path d="M5.02541 23.7391L2.94919 20.2666H1.95068V23.7391H0.00579388V14.6354H3.55757C5.10845 14.6354 6.4662 15.8829 6.4662 17.4471C6.4662 18.62 5.89837 19.5273 4.99258 19.9724L7.39905 23.745L7.39326 23.7391H5.02541ZM1.94489 18.6029H3.35284C3.98633 18.6029 4.48269 18.1463 4.48269 17.535C4.48269 16.9239 3.98054 16.4921 3.35284 16.4921H1.94489V18.6029Z" fill="white"/>
<path d="M13.6373 20.9829H8.99629C9.16818 21.8539 9.77076 22.3104 10.6534 22.3104C11.2309 22.3104 11.8392 22.0506 12.0614 21.659L13.5099 22.5301C13.0386 23.3763 11.959 23.8671 10.6167 23.8671C8.72203 23.8671 7.22329 22.4097 7.22329 20.511C7.22329 18.6124 8.69693 17.2199 10.5761 17.2199C12.324 17.2199 13.6914 18.557 13.6914 20.2609C13.6914 20.4806 13.676 20.7269 13.6412 20.9771L13.6354 20.9829H13.6373ZM11.8335 19.81C11.7523 19.174 11.1652 18.7021 10.4815 18.7021C9.70703 18.7021 9.19522 19.1186 9.02333 19.81H11.8354H11.8335Z" fill="white"/>
<path d="M16.1752 23.7391L13.8498 17.3517H15.8353L16.9149 20.8491L18.2012 17.3517H19.6496L20.9514 20.8491L22.0156 17.3517H24.0165L21.6911 23.7391H20.2329L18.9312 20.2417L17.614 23.7391H16.1752Z" fill="white"/>
<path d="M29.2215 17.3517H31.0756V23.7391H29.2215V22.828C28.7754 23.489 28.0762 23.871 27.1704 23.871C25.4979 23.871 24.171 22.3734 24.171 20.5397C24.171 18.706 25.4979 17.2237 27.1704 17.2237C28.0781 17.2237 28.7772 17.6 29.2215 18.2667V17.3517ZM29.2215 20.5379C29.2215 19.6516 28.5128 18.9639 27.6049 18.9639C26.6972 18.9639 25.9884 19.6649 25.9884 20.5379C25.9884 21.4107 26.7127 22.1117 27.6049 22.1117C28.4973 22.1117 29.2215 21.4356 29.2215 20.5379Z" fill="white"/>
<path d="M36.6379 17.3651L36.4256 19.1491C36.1764 19.0441 35.8885 18.9944 35.595 18.9944C34.9769 18.9944 34.2276 19.4604 34.2276 20.5931V23.7391H32.3735V17.3517H34.2276V18.1424C34.5058 17.5961 35.2145 17.2199 35.7785 17.2199C36.1185 17.2199 36.4371 17.2696 36.6341 17.3651H36.6399H36.6379Z" fill="white"/>
<path d="M41.8044 14.6354H43.6585V23.7391H41.8044V22.828C41.3582 23.489 40.6591 23.871 39.7533 23.871C38.0806 23.871 36.7539 22.3734 36.7539 20.5397C36.7539 18.706 38.0806 17.2237 39.7533 17.2237C40.661 17.2237 41.3601 17.6 41.8044 18.2667V14.6354ZM41.8044 20.5379C41.8044 19.6516 41.0955 18.9639 40.1878 18.9639C39.2801 18.9639 38.5713 19.6649 38.5713 20.5379C38.5713 21.4107 39.2955 22.1117 40.1878 22.1117C41.0801 22.1117 41.8044 21.4356 41.8044 20.5379Z" fill="white"/>
<path d="M44.6222 23.063L45.1746 21.7909C45.7772 22.2321 46.567 22.467 47.359 22.467C47.9363 22.467 48.3073 22.2474 48.3073 21.9456C48.2918 20.9696 44.8211 21.6991 44.796 19.3459C44.7805 18.1483 45.8602 17.2256 47.384 17.2256C48.2918 17.2256 49.1976 17.4453 49.8407 17.9514L49.3135 19.279C48.8114 18.9027 47.9963 18.6181 47.303 18.6181C46.8316 18.6181 46.513 18.8379 46.513 19.1243C46.5284 20.0469 50.0241 19.5407 50.0647 21.829C50.0647 23.0114 49.0103 23.8729 47.5115 23.8729C46.4068 23.8729 45.3947 23.6131 44.6183 23.0669L44.6241 23.0611L44.6222 23.063Z" fill="white"/>
<path d="M1.39251 12.435V8.90316H5.30352V6.73897H12.5539L24.9242 1.49754L37.2966 6.73897H44.5449V8.90316H48.4522V15.3213H49.8446V7.52594H45.9394V5.36176H37.5804L24.9242 0L12.2699 5.36176H3.91101V7.52594H0V12.435H1.39251Z" fill="white"/>
<path d="M13.8305 11.925V14.4807H12.6253V12.202C12.6253 11.7168 12.3472 11.415 11.9107 11.415C11.5109 11.415 11.1555 11.6748 11.1555 12.202V14.4807H9.96004V12.202C9.96004 11.7168 9.68192 11.415 9.24157 11.415C8.85144 11.415 8.50186 11.6652 8.50186 12.202V14.4807H7.30635V10.3625H8.50186V10.8591C8.81667 10.4083 9.30723 10.2785 9.68772 10.2785C10.2304 10.2785 10.609 10.4542 10.8678 10.884C11.1169 10.5325 11.5978 10.2785 12.1251 10.2785C13.1178 10.2785 13.8266 10.9241 13.8266 11.9212L13.8324 11.9269L13.8305 11.925Z" fill="white"/>
<path d="M18.4755 10.3606L16.1597 15.8466H14.8773L15.648 14.1427L14.0468 10.3606H15.3331L16.2543 12.7655L17.1756 10.3606H18.4755Z" fill="white"/>
<path d="M20.4415 8.61281V14.4846H19.2461V8.61281H20.4415Z" fill="#97CAEB"/>
<path d="M25.3916 12.4255C25.3916 13.6479 24.4491 14.5649 23.2285 14.5649C22.0078 14.5649 21.0653 13.6537 21.0653 12.4255C21.0653 11.1972 21.9982 10.2804 23.2285 10.2804C24.4588 10.2804 25.3916 11.203 25.3916 12.4255ZM22.2339 12.4255C22.2339 12.9966 22.6587 13.4321 23.2265 13.4321C23.7943 13.4321 24.2193 12.9966 24.2193 12.4255C24.2193 11.8543 23.7886 11.4093 23.2265 11.4093C22.6645 11.4093 22.2339 11.8352 22.2339 12.4255Z" fill="#97CAEB"/>
<path d="M26.9907 14.4807L25.492 10.3625H26.7745L27.4678 12.6165L28.2983 10.3625H29.2312L30.0713 12.6165L30.7607 10.3625H32.0472L30.5484 14.4807H29.6059L28.7657 12.2268L27.9198 14.4807H26.9907Z" fill="#97CAEB"/>
<path d="M33.2947 12.7005C33.4068 13.2621 33.797 13.5582 34.3628 13.5582C34.7374 13.5582 35.1276 13.392 35.2706 13.1379L36.2034 13.6995C35.9002 14.2458 35.201 14.561 34.3396 14.561C33.1189 14.561 32.1515 13.6231 32.1515 12.3968C32.1515 11.1705 33.0997 10.2765 34.3145 10.2765C35.4444 10.2765 36.325 11.138 36.325 12.2402C36.325 12.3796 36.3154 12.5401 36.2904 12.7005H33.2947ZM35.1276 11.9498C35.0775 11.5391 34.6969 11.2393 34.2566 11.2393C33.7544 11.2393 33.426 11.5105 33.3141 11.9498H35.1276Z" fill="#97CAEB"/>
<path d="M37.6809 9.53541L37.0416 10.7522H36.3733L36.8504 9.54496C36.6224 9.43417 36.4699 9.1935 36.4699 8.91271C36.4699 8.51731 36.7848 8.2155 37.1845 8.2155C37.5843 8.2155 37.8992 8.5154 37.8992 8.91271C37.8992 9.08844 37.8238 9.25844 37.6867 9.5335H37.6809V9.53541Z" fill="#97CAEB"/>
<path d="M37.1344 14.0433L37.4897 13.222C37.8798 13.5085 38.3858 13.6575 38.8976 13.6575C39.2723 13.6575 39.5099 13.5181 39.5099 13.3213C39.5002 12.6891 37.2599 13.1609 37.2463 11.6423C37.2366 10.8706 37.9359 10.2746 38.9188 10.2746C39.5021 10.2746 40.0893 10.4141 40.5045 10.7464L40.1647 11.6041C39.8401 11.3577 39.3186 11.1781 38.8687 11.1781C38.5655 11.1781 38.3627 11.3176 38.3627 11.5029C38.3722 12.0988 40.6262 11.7741 40.6533 13.2468C40.6533 14.009 39.9753 14.5649 39.0077 14.5649C38.2931 14.5649 37.6442 14.3986 37.144 14.0433H37.1344Z" fill="#97CAEB"/>
<path d="M50.7987 17.2467V17.4644H50.5012V18.2761H50.2675V17.4644H49.9662V17.2467H50.7987ZM52 17.2467V18.2781H51.7663V17.7661L51.5441 18.2781H51.3627L51.1424 17.7661V18.2781H50.9087V17.2467H51.1657L51.4573 17.9094L51.7412 17.2467H52Z" fill="white"/>
</g>
<defs>
<clipPath id="clip0_44_11463">
<rect width="52" height="24" fill="white"/>
</clipPath>
</defs>
</svg>
